<svg width="150" height="32" viewBox="0 0 316 68" fill="none" xmlns="http://www.w3.org/2000/svg">
<path d="M125.683 31.0945H130.486C131.435 31.0945 132.124 31.0102 132.543 30.8323C132.962 30.6638 133.251 30.3172 133.409 29.7927C133.567 29.2682 133.641 28.416 133.641 27.2358C133.641 26.2805 133.567 25.5593 133.409 25.0535C133.251 24.5572 132.953 24.2013 132.506 23.9859C132.059 23.7704 131.38 23.6674 130.477 23.6674H125.674V31.0945H125.683ZM125.683 44.0289H118.656V17.5234H131.892C133.548 17.5234 134.944 17.7107 136.08 18.076C137.225 18.4412 138.137 19.0125 138.844 19.7806C139.552 20.5486 140.054 21.5414 140.39 22.7777C140.715 24.0139 140.883 25.5032 140.883 27.2453C140.883 29.1933 140.753 30.7949 140.492 32.0498C140.231 33.3048 139.775 34.3164 139.133 35.0751C138.491 35.8337 137.588 36.3863 136.415 36.7329C135.252 37.0793 133.744 37.2574 131.892 37.2574H125.674V44.0289H125.683Z" fill="#1677ff"/>
<path d="M150.861 23.3209V28.163H162.095V33.0708H150.861V38.2314H163.082V44.0289H143.833V17.5234H162.84V23.3209H150.861Z" fill="#1677ff"/>
<path d="M181.624 34.3164L178.356 22.8245H178.292L175.089 34.3164H181.624ZM183.028 39.477H173.582L172.288 44.0289H164.981L172.874 17.5234H183.559L191.574 44.0289H184.405L183.028 39.477Z" fill="#1677ff"/>
<path d="M200.415 37.8755H209.584V17.5234H216.612V37.8755H218.789V50.0699H212.115V44.0289H193.389V17.5234H200.415V37.8755Z" fill="#1677ff"/>
<path d="M228.618 23.3209V28.163H239.852V33.0708H228.618V38.2314H240.839V44.0289H221.59V17.5234H240.598V23.3209H228.618Z" fill="#1677ff"/>
<path d="M268.624 17.5234V44.0289H261.606V33.6421H252.428V44.0289H245.41V17.5234H252.428V27.4888H261.606V17.5234H268.624Z" fill="#1677ff"/>
<path d="M284.642 23.6768V44.0289H277.624V23.6768H270.876V17.5234H291.734V23.6768H284.642Z" fill="#1677ff"/>
<path d="M300.8 31.0945H305.602C306.552 31.0945 307.241 31.0102 307.661 30.8323C308.08 30.6638 308.367 30.3172 308.526 29.7927C308.685 29.2682 308.759 28.416 308.759 27.2358C308.759 26.2805 308.685 25.5593 308.526 25.0535C308.367 24.5572 308.069 24.2013 307.623 23.9859C307.176 23.7704 306.496 23.6674 305.594 23.6674H300.791V31.0945H300.8ZM300.8 44.0289H293.773V17.5234H307.008C308.656 17.5234 310.052 17.7107 311.197 18.076C312.341 18.4412 313.254 19.0125 313.962 19.7806C314.66 20.5486 315.172 21.5414 315.506 22.7777C315.833 24.0139 316 25.5032 316 27.2453C316 29.1933 315.87 30.7949 315.61 32.0498C315.348 33.3048 314.893 34.3164 314.249 35.0751C313.607 35.8337 312.705 36.3863 311.532 36.7329C310.369 37.0793 308.86 37.2574 307.008 37.2574H300.791V44.0289H300.8Z" fill="#1677ff"/>
<path d="M59.9793 59.773C31.8977 67.5936 5.92884 62.3113 1.98234 47.972C-1.95487 33.6236 17.6101 15.6504 45.6918 7.82985C73.7734 0.0093441 99.7422 5.29171 103.689 19.6308C107.635 33.9794 88.0702 51.9431 59.9793 59.773ZM104.768 16.0812C99.4164 0.187298 71.8188 -4.76726 43.1414 5.02009C14.4641 14.8074 -4.44936 35.6184 0.902633 51.5124C6.25462 67.4063 33.843 72.3608 62.5296 62.5734C91.2163 52.7955 110.12 31.9751 104.768 16.0812Z" fill="#1677ff"/>
<path d="M51.6118 22.2063C50.9975 22.2063 50.4483 22.4873 50.0853 22.9181C50.0853 22.9181 50.0853 22.9181 50.0853 22.9088C50.0574 22.9556 50.0108 23.0024 49.9736 23.068C49.9643 23.0774 49.9643 23.0867 49.955 23.096C49.6757 23.4894 49.2196 24.1826 49.0243 24.5385C48.7635 25.0255 48.6425 25.5874 48.4565 26.1026L43.9701 41.959C43.9701 41.959 43.8584 42.5021 43.5698 42.6052C43.2813 42.5021 43.1697 41.959 43.1697 41.959L38.674 26.1026C38.4878 25.5781 38.3668 25.0255 38.1062 24.5385C37.92 24.1826 37.4546 23.4894 37.1755 23.096C37.166 23.0867 37.166 23.0774 37.1567 23.068C37.1102 23.0024 37.073 22.9556 37.045 22.9088C37.045 22.9088 37.045 22.9088 37.045 22.9181C36.682 22.4779 36.1328 22.2063 35.5186 22.2063C34.4109 22.2063 33.5175 23.1055 33.5175 24.2199C33.5175 24.6884 33.6756 25.1191 33.9455 25.4657C34.0945 25.6811 34.3179 26.0183 34.4296 26.1962C34.6343 26.524 34.7553 26.908 34.8577 27.2921L40.3865 46.4827C40.6379 47.3631 41.0847 48.2248 41.6804 48.9928C41.9317 49.3207 42.183 49.5547 42.6112 49.7609C42.9184 49.9106 43.1511 49.9574 43.5698 49.9668C43.9887 49.9574 44.2214 49.9106 44.5286 49.7609C44.9567 49.5547 45.2079 49.3207 45.4594 48.9928C46.0458 48.2341 46.4926 47.3631 46.7531 46.4827L52.2912 27.2921C52.3936 26.9174 52.5053 26.5333 52.7194 26.1962C52.8311 26.0183 53.0545 25.6811 53.2034 25.4657C53.4733 25.1191 53.6316 24.6884 53.6316 24.2199C53.613 23.1055 52.7194 22.2063 51.6118 22.2063Z" fill="#1677ff"/>
<path d="M43.7189 12.9531C46.0365 12.9531 47.9073 14.845 47.9073 17.1677C47.9073 19.4999 46.0272 21.3824 43.7189 21.3824C41.4011 21.3824 39.5303 19.4904 39.5303 17.1677C39.5303 14.845 41.4106 12.9531 43.7189 12.9531Z" fill="#1677ff"/>
<path d="M68.645 49.9577C68.0307 49.9577 67.4815 49.6767 67.1185 49.246C67.0907 49.1992 67.0442 49.1523 67.0068 49.0868C66.9975 49.0773 66.9975 49.068 66.9883 49.0586C66.7091 48.6653 66.253 47.9722 66.0575 47.6163C65.7969 47.1293 65.6759 46.5672 65.4897 46.0522L60.9941 30.1957C60.9941 30.1957 60.8824 29.6524 60.5937 29.5495C60.3053 29.6524 60.1936 30.1957 60.1936 30.1957L55.6979 46.0522C55.5117 46.5767 55.3907 47.1293 55.1301 47.6163C54.9439 47.9722 54.4785 48.6653 54.1994 49.0586C54.1901 49.068 54.1901 49.0773 54.1808 49.0868C54.1341 49.1523 54.097 49.1992 54.0691 49.246C53.6966 49.6862 53.1569 49.9577 52.5425 49.9577C51.435 49.9577 50.5414 49.0586 50.5414 47.9441C50.5414 47.4759 50.6995 47.0449 50.9696 46.6984C51.1185 46.4831 51.3419 46.1458 51.4536 45.9678C51.6584 45.64 51.7794 45.2561 51.8818 44.8721L57.4106 25.6813C57.6619 24.8009 58.1087 23.9393 58.7043 23.1714C58.9556 22.8436 59.2069 22.6094 59.6351 22.4034C59.9423 22.2535 60.175 22.2067 60.5937 22.1972C61.0126 22.2067 61.2453 22.2535 61.5525 22.4034C61.9806 22.6094 62.232 22.8436 62.4833 23.1714C63.0697 23.93 63.5165 24.8009 63.7771 25.6813L69.3059 44.8721C69.4083 45.2468 69.52 45.6307 69.7341 45.9678C69.8458 46.1458 70.0692 46.4831 70.218 46.6984C70.4881 47.0449 70.6462 47.4759 70.6462 47.9441C70.6462 49.0586 69.7527 49.9577 68.645 49.9577Z" fill="#1677ff"/>
<path d="M60.7614 12.9531C63.079 12.9531 64.9498 14.845 64.9498 17.1677C64.9498 19.4999 63.0697 21.3824 60.7614 21.3824C58.4438 21.3824 56.5728 19.4904 56.5728 17.1677C56.5635 14.845 58.4438 12.9531 60.7614 12.9531Z" fill="#1677ff"/>
<path d="M82.8488 31.5912C82.2345 31.5912 81.6853 31.8722 81.3223 32.3031C81.2945 32.3499 81.2478 32.3967 81.2106 32.4623C81.2014 32.4716 81.2014 32.4811 81.1921 32.4904C80.9127 32.8837 80.4566 33.5767 80.2613 33.9326C80.0005 34.4198 79.8796 34.9817 79.6935 35.4967L77.8877 42.1091C77.8877 42.1091 77.776 42.6524 77.4874 42.7553C77.199 42.6524 77.0873 42.1091 77.0873 42.1091L75.235 35.6186C75.0488 35.0941 74.9278 34.5415 74.6673 34.0545C74.4717 33.6986 74.0156 33.0054 73.7365 32.6122C73.7272 32.6027 73.7272 32.5934 73.7179 32.584C73.6713 32.5184 73.6341 32.4716 73.6062 32.4248C73.2338 31.9846 72.694 31.713 72.0796 31.713C70.9721 31.713 70.0785 32.6122 70.0785 33.7266C70.0785 34.1949 70.2367 34.6258 70.5067 34.9724C70.6556 35.1877 70.879 35.525 70.9907 35.7029C71.1955 36.0307 71.3165 36.4147 71.4189 36.7986L74.3136 46.6235C74.5648 47.5039 75.0116 48.3655 75.6073 49.1336C75.8586 49.4614 76.1099 49.6954 76.5381 49.9016C76.8453 50.0513 77.078 50.0981 77.4967 50.1076C77.9156 50.0981 78.1483 50.0513 78.4555 49.9016C78.8837 49.6954 79.135 49.4614 79.3863 49.1336C79.9727 48.3748 80.4195 47.5039 80.68 46.6235L83.5283 36.6769C83.6307 36.3023 83.7424 35.9182 83.9565 35.5811C84.0682 35.4031 84.2916 35.066 84.4404 34.8505C84.7103 34.504 84.8686 34.0732 84.8686 33.605C84.8593 32.4904 83.9565 31.5912 82.8488 31.5912Z" fill="#1677ff"/>
<path d="M77.655 22.3376C79.9726 22.3376 81.8434 24.2294 81.8434 26.5522C81.8434 28.8842 79.9633 30.7669 77.655 30.7669C75.3373 30.7669 73.4663 28.8842 73.4663 26.5522C73.457 24.2294 75.3373 22.3376 77.655 22.3376Z" fill="#1677ff"/>
<path d="M33.6105 50.0981C32.9961 50.0981 32.4469 49.8171 32.0839 49.3862C32.0561 49.3394 32.0096 49.2926 31.9722 49.227C31.9629 49.2177 31.9629 49.2082 31.9537 49.1989C31.6745 48.8056 31.2184 48.1126 31.0229 47.7567C30.7623 47.2695 30.6413 46.7076 30.4551 46.1926L28.6493 39.5802C28.6493 39.5802 28.5376 39.0369 28.2492 38.9339C27.9606 39.0369 27.8489 39.5802 27.8489 39.5802L25.9966 46.0707C25.8106 46.5952 25.6896 47.1478 25.4288 47.6348C25.2335 47.9907 24.7774 48.6839 24.4981 49.0771C24.4888 49.0866 24.4888 49.0959 24.4795 49.1053C24.433 49.1709 24.3957 49.2177 24.3678 49.2645C23.9955 49.7047 23.4556 49.9763 22.8414 49.9763C21.7337 49.9763 20.8401 49.0771 20.8401 47.9627C20.8401 47.4944 20.9984 47.0635 21.2683 46.7169C21.4172 46.5016 21.6406 46.1643 21.7523 45.9864C21.9571 45.6586 22.0781 45.2746 22.1805 44.8907L25.0752 35.0658C25.3264 34.1854 25.7732 33.3238 26.3691 32.5557C26.6204 32.2374 26.8716 31.9938 27.2998 31.7877C27.6069 31.638 27.8396 31.5912 28.2585 31.5817C28.6774 31.5912 28.9101 31.638 29.2171 31.7877C29.6453 31.9938 29.8966 32.2279 30.1479 32.5557C30.7344 33.3145 31.1811 34.1854 31.4418 35.0658L34.2899 45.0124C34.3923 45.387 34.504 45.7709 34.7181 46.1082C34.8298 46.2862 35.0532 46.6233 35.202 46.8387C35.4721 47.1853 35.6302 47.6161 35.6302 48.0843C35.6116 49.1989 34.7088 50.0981 33.6105 50.0981Z" fill="#1677ff"/>
<path d="M28.4073 22.3376C30.725 22.3376 32.5959 24.2294 32.5959 26.5522C32.5959 28.8842 30.725 30.7669 28.4073 30.7669C26.0897 30.7669 24.2189 28.8842 24.2189 26.5522C24.2096 24.2294 26.0897 22.3376 28.4073 22.3376Z" fill="#1677ff"/>
</svg>
